<svg id="Ebene_1" data-name="Ebene 1" xmlns="http://www.w3.org/2000/svg" xmlns:xlink="http://www.w3.org/1999/xlink" viewBox="0 0 312.86 93.33">
  <defs>
    <style>
      .cls-1 {
        fill: #f5f5f5;
      }

      .cls-2 {
        fill: #b1b1b1;
      }

      .cls-3 {
        fill: url(#Neues_Verlaufsfeld_Kopie);
      }

      .cls-4 {
        fill: url(#Neues_Verlaufsfeld_Kopie-2);
      }

      .cls-5 {
        fill: #3c3c3b;
      }
    </style>
    <linearGradient id="Neues_Verlaufsfeld_Kopie" data-name="Neues Verlaufsfeld Kopie" x1="672.94" y1="608.3" x2="672.94" y2="642.08" gradientUnits="userSpaceOnUse">
      <stop offset="0" stop-color="#009ee2"/>
      <stop offset="1" stop-color="#0080c5"/>
    </linearGradient>
    <linearGradient id="Neues_Verlaufsfeld_Kopie-2" x1="690.05" y1="558.55" x2="690.05" y2="642.41" xlink:href="#Neues_Verlaufsfeld_Kopie"/>
  </defs>
  <g>
    <path class="cls-1" d="M942.17,646.8H658.66C652.3,646.8,644,641,644,632V568.08c0-5.77,5.87-13.92,14.58-13.92H941.83c5.78,0,14.34,5.54,14.34,14.34v64C956.17,638.41,950.21,646.8,942.17,646.8Z" transform="translate(-643.66 -553.82)"/>
    <path class="cls-2" d="M941.8,647.14H658.37c-7.56,0-14.71-7.15-14.71-14.71v-63.9c0-7.56,7.15-14.71,14.71-14.71H941.8c7.57,0,14.72,7.15,14.72,14.71v63.9C956.52,640,949.37,647.14,941.8,647.14ZM658.37,554.5c-7.21,0-14,6.82-14,14v63.9c0,7.21,6.81,14,14,14H941.8c7.21,0,14-6.81,14-14v-63.9c0-7.21-6.82-14-14-14Z" transform="translate(-643.66 -553.82)"/>
  </g>
  <g>
    <path class="cls-3" d="M657,642.08c8.35-.69,17.32-3.36,26.71-8,9.89-4.87,14.73-9.52,14-13.44-.43-2.32-2.87-4.17-7.24-5.51l-5.66-1.07L676.06,613l-10.42-.87-6.22-.85a51.4,51.4,0,0,1-11.29-3v22.57A11.58,11.58,0,0,0,657,642.08Z" transform="translate(-643.66 -553.82)"/>
    <path class="cls-4" d="M720.45,558.55H659.66a11.57,11.57,0,0,0-11.53,11.54v12.64a60.26,60.26,0,0,1,9.61-6.15A96.07,96.07,0,0,1,677,569a88.54,88.54,0,0,1,20.24-3,44.76,44.76,0,0,1,17.06,2.42c6.09,2.18,9.67,5.85,10.62,10.92.8,4.27-1.09,8-5.61,11.09a3.59,3.59,0,0,1-1.91.58h-.17c-1.26,0-3.48-.5-4.11-3.89a3.93,3.93,0,0,1,1.56-4l.1-.07c1.77-1.12,2.58-2.19,2.4-3.18-.1-.54-.87-2-5.8-3.5l-2.41-.71-4-.67a30.08,30.08,0,0,0-6.42-.46c-3,.09-5.16.23-6.51.32-6.46.46-12.72,2.57-17.29,4.23a113.3,113.3,0,0,0-10.52,4.31,71.24,71.24,0,0,0-8.87,5.13c-6.58,4.42-6.84,6.55-7.05,8s1.18,3.2,3.78,4.26a39.43,39.43,0,0,0,8.1,1.9c3.81.59,11.51,1.23,15.36,1.58,2.32.21,6.81.61,9.12,1a64.81,64.81,0,0,1,8.65,1.69c8,2.46,10.85,6.27,12.12,13.06,1.5,8-4,15.31-16.38,21.71l-1.41.69h32.83A11.57,11.57,0,0,0,732,630.87V570.09A11.57,11.57,0,0,0,720.45,558.55Z" transform="translate(-643.66 -553.82)"/>
  </g>
  <path class="cls-5" d="M779.35,623.29a6.84,6.84,0,0,1-3.6,6.09,17.08,17.08,0,0,1-9,2.18,19.77,19.77,0,0,1-8.42-1.89,8.84,8.84,0,0,1-3.34-2.81,6.93,6.93,0,0,1-1.32-4.17v-.19l6.37-.24v.21a3.25,3.25,0,0,0,2.07,3,10.2,10.2,0,0,0,4.73,1.09c3.85,0,5.72-1,5.72-3.08,0-1.69-1.26-2.66-3.85-3l-5.48-.44a13.47,13.47,0,0,1-6.64-2.36,6.43,6.43,0,0,1-2.49-5.43c0-2.35,1.19-4.32,3.55-5.85a16.07,16.07,0,0,1,8.84-2.27,15.57,15.57,0,0,1,8.61,2.14,6.54,6.54,0,0,1,3.31,5.61v.19l-6.23.24,0-.16c-.52-2.08-2.26-3.1-5.34-3.1a8.66,8.66,0,0,0-4.42,1,2.54,2.54,0,0,0-1.53,2.12,2.14,2.14,0,0,0,1.09,1.92,6.53,6.53,0,0,0,2.84.93l5.39.44C776.25,616.05,779.35,618.71,779.35,623.29Zm21.84-2.49a8.18,8.18,0,0,1-1.59,4.36c-.79.9-2.26,1.36-4.39,1.36a6.42,6.42,0,0,1-4.7-1.5c-1-1-1.46-2.93-1.46-5.73V617c0-1,0-1.83.09-2.42a6,6,0,0,1,1.27-3.83,6.46,6.46,0,0,1,4.78-1.58,6.23,6.23,0,0,1,4,1.07,5.77,5.77,0,0,1,1.78,3.22l0,.15h6.52v-.2a7.93,7.93,0,0,0-3.47-6.91,15.48,15.48,0,0,0-8.9-2.37,18.42,18.42,0,0,0-6.37,1c-4.48,1.62-6.76,5.67-6.76,12v2.24c0,8.09,4.42,12.19,13.13,12.19,3.94,0,7-.93,9.22-2.77s3.29-4.53,3.29-8v-.2h-6.49Zm28.87-5.22H818.11V604.33h-7v27h7V620.58h11.95v10.76h7v-27h-7Zm28.21-8.89,10.92,24.65h-7.31l-1.89-4.6H849l-1.85,4.6h-7.31l10.92-24.64a4,4,0,0,1,3.92-2.37,4.27,4.27,0,0,1,2.16.48A4,4,0,0,1,858.27,606.69Zm-3.64,5.51L850.76,622h7.56Zm35,9.63a4,4,0,0,1-1.66,3.52,7.78,7.78,0,0,1-4.48,1.17,7.63,7.63,0,0,1-4.45-1.17,4,4,0,0,1-1.64-3.52v-17.5h-7V622a8,8,0,0,0,3.81,7,18.19,18.19,0,0,0,18.54,0,8,8,0,0,0,3.81-7V604.33h-6.94Zm36-17.5-9.35,15.18-9.4-15.18h-6.8v27h7V616l5.78,9.37a4,4,0,0,0,3.46,2.22,4.1,4.1,0,0,0,3.47-2.11l5.68-9.46v15.35h7v-27Z" transform="translate(-643.66 -553.82)"/>
  <path class="cls-5" d="M754.92,593.43a5.8,5.8,0,0,1-1.08-2.89l3.84-.17a3.82,3.82,0,0,0,2.21,2.94,10.7,10.7,0,0,0,5,1.16c4.24,0,6.39-1.3,6.39-3.85,0-1.45-.78-3.28-4.5-3.73l-5.29-.43a9.18,9.18,0,0,1-5.15-2.11,5.34,5.34,0,0,1-2.07-4.56c0-2,1-3.61,3-4.93a11.82,11.82,0,0,1,7.24-2.06c4.22,0,5.88,1,7,1.66a6.38,6.38,0,0,1,3,4.33l-3.87.17c-.76-2.07-2.72-3.12-5.85-3.12a9.22,9.22,0,0,0-4.71,1,3.28,3.28,0,0,0-1.9,2.79,3,3,0,0,0,1.45,2.58,7,7,0,0,0,3.14,1l5.2.43c5.48.59,7.31,2.81,7.31,6.78a5.74,5.74,0,0,1-3.07,5.15,12.7,12.7,0,0,1-7.46,2,15.62,15.62,0,0,1-6.94-1.73A9.22,9.22,0,0,1,754.92,593.43Zm45.67-17.85c1.95,1.83,2.94,4.67,2.94,8.43v2c0,4.1-1,7.1-2.88,8.91s-5.1,2.74-9.45,2.74-7.51-.92-9.4-2.74-2.84-4.84-2.84-9V584c0-3.79,1-6.63,2.89-8.44s5.06-2.74,9.33-2.74S798.62,573.73,800.59,575.58Zm-1.24,8.94a12.48,12.48,0,0,0-1.18-5.84c-1-1.81-3.86-2.73-6.92-2.73s-6,.92-7,2.73a12.33,12.33,0,0,0-1.13,5.84v1.34c0,3.32.6,5.53,1.83,6.73a5.66,5.66,0,0,0,2.14,1.34,14.26,14.26,0,0,0,4.11.54,14.68,14.68,0,0,0,4.07-.52,6,6,0,0,0,2.16-1.3,5.15,5.15,0,0,0,1.21-2,14.2,14.2,0,0,0,.68-4.74Zm24-.71H811.49v-4.24c0-1.22.06-2.21.68-2.84.77-.76,2.1-.57,3.61-.57h11.66V573H812.77c-2.41,0-3.22.35-4.15,1.05a3.36,3.36,0,0,0-1.31,3.11V597.4h4.18V587h11.56ZM852.73,573H831.11v3.14h8.69V597.4H844V576.16h8.74Zm5.83,22.81c1.51,1,4.05,1.57,7.56,1.57h9v-3.15h-9.88a6.55,6.55,0,0,1-3.53-.69,3,3,0,0,1-1.17-2.65V573H856.4v17.89C856.4,593.23,857.1,594.84,858.56,595.83ZM878.82,573V597.4H883V573Zm28.25,24.67a2.49,2.49,0,0,0,1.75-.68,2,2,0,0,0,.7-1.55V573h-4.19v18.07L891,573h-4.3V597.4h4.19V579.68L903.31,595C904.56,596.83,905.18,597.69,907.07,597.69Zm25.41-21.53V573H913.19v18.25c0,2.32.63,3.87,1.92,4.74s3,1.39,6.5,1.39h10.87v-3.15H922.07a6.55,6.55,0,0,1-3.53-.69,3,3,0,0,1-1.17-2.65v-4.24h10.18l.32-3.15h-10.5v-7.36Z" transform="translate(-643.66 -553.82)"/>
</svg>
